<?xml version="1.0" encoding="UTF-8" standalone="no"?>
<!DOCTYPE svg PUBLIC "-//W3C//DTD SVG 1.1//EN" "http://www.w3.org/Graphics/SVG/1.1/DTD/svg11.dtd">
<svg width="100%" height="100%" viewBox="0 0 111 111" version="1.1" xmlns="http://www.w3.org/2000/svg" xmlns:xlink="http://www.w3.org/1999/xlink" xml:space="preserve" xmlns:serif="http://www.serif.com/" style="fill-rule:evenodd;clip-rule:evenodd;stroke-linejoin:round;stroke-miterlimit:2;">
    <g transform="matrix(1,0,0,1,-373,-10)">
        <g id="yoga_mono" transform="matrix(1,0,0,1,363,0)">
            <path d="M40,10L10,10L10,121L17,121L40,10Z" style="fill:none;"/>
            <g transform="matrix(1,0,0,1,37,0)">
                <path d="M40,10L10,10L10,121L17,121L40,10Z" style="fill:none;"/>
            </g>
            <g transform="matrix(1,0,0,1,74,0)">
                <path d="M40,10L10,10L10,121L17,121L40,10Z" style="fill:rgb(230,230,230);"/>
            </g>
            <g transform="matrix(-1,0,0,-1,57,131)">
                <path d="M40,10L10,10L10,121L17,121L40,10Z" style="fill:rgb(150,150,150);"/>
            </g>
            <g transform="matrix(-1,0,0,-1,94,131)">
                <path d="M40,10L10,10L10,121L17,121L40,10Z" style="fill:rgb(150,150,150);"/>
            </g>
            <g transform="matrix(-1,0,0,-1,131,131)">
                <path d="M40,10L10,10L10,121L17,121L40,10Z" style="fill:none;"/>
            </g>
        </g>
    </g>
</svg>
